<svg width="24" height="24" viewBox="0 0 24 24" fill="none" xmlns="http://www.w3.org/2000/svg">
<path d="M2.573 8.46347L11.232 4.13447C11.3152 4.09292 11.407 4.07129 11.5 4.07129C11.593 4.07129 11.6848 4.09292 11.768 4.13447L20.427 8.46447C20.5266 8.51433 20.6103 8.59093 20.6688 8.68568C20.7274 8.78043 20.7584 8.8896 20.7584 9.00097C20.7584 9.11234 20.7274 9.22151 20.6688 9.31626C20.6103 9.41101 20.5266 9.48761 20.427 9.53747L11.768 13.8665C11.6848 13.908 11.593 13.9296 11.5 13.9296C11.407 13.9296 11.3152 13.908 11.232 13.8665L2.573 9.53647C2.47342 9.48661 2.38968 9.41001 2.33116 9.31526C2.27263 9.22051 2.24164 9.11134 2.24164 8.99997C2.24164 8.8886 2.27263 8.77943 2.33116 8.68468C2.38968 8.58993 2.47342 8.51333 2.573 8.46347Z" stroke="#495E69" stroke-width="1.5" stroke-linecap="round" stroke-linejoin="round"/>
<path d="M22.5 13V9.5L20.5 8.5M4.5 10.5V15.912C4.49993 16.2904 4.60719 16.661 4.80933 16.9809C5.01148 17.3007 5.30021 17.5567 5.642 17.719L10.642 20.093C10.9101 20.2203 11.2032 20.2864 11.5 20.2864C11.7968 20.2864 12.0899 20.2203 12.358 20.093L17.358 17.719C17.6998 17.5567 17.9885 17.3007 18.1907 16.9809C18.3928 16.661 18.5001 16.2904 18.5 15.912V10.5" stroke="#495E69" stroke-width="1.5" stroke-linecap="round" stroke-linejoin="round"/>
</svg>
