<svg width="24" height="24" viewBox="0 0 24 24" fill="none" xmlns="http://www.w3.org/2000/svg">
<path d="M14.4847 5.22691C14.0685 5.22991 13.6552 5.25016 13.2188 5.36716C12.7431 5.49591 12.2919 5.7019 11.883 5.97691C11.3085 5.63941 10.752 5.36191 10.2188 5.29666C9.5565 5.21491 8.9415 5.25916 8.22675 5.27416C7.37925 5.29141 6.8265 5.72416 5.9295 6.07066C5.03325 6.41566 3.879 6.75016 2.25 6.75016H1.5V13.9689L1.92225 14.1797L3.3045 14.8599L8.22675 20.3439L8.25 20.3672C8.8125 20.9237 9.5715 21.0617 10.242 21.0234C10.9132 20.9859 11.5433 20.7894 12.0465 20.4849C13.1543 19.8167 16.1715 17.7189 16.1715 17.7189L16.242 17.6717L16.2892 17.6252C16.6462 17.2704 16.8255 16.8377 16.9455 16.3832L19.8278 14.9297L21.984 14.2037L22.5 14.0387V6.75016H21.75C20.4892 6.75956 19.2389 6.52051 18.0705 6.04666C17.1735 5.69641 16.629 5.26816 15.7725 5.25016C15.315 5.24116 14.9002 5.22391 14.4847 5.22691ZM14.5072 6.72691C14.8448 6.72391 15.2347 6.74191 15.7267 6.75016C15.8055 6.75316 16.5262 7.06066 17.5312 7.45366C18.381 7.78741 19.5615 8.08366 21 8.17966V12.9609L19.2653 13.5474H19.2188L19.1715 13.5699L16.899 14.7189C16.7784 14.3709 16.5868 14.0516 16.3365 13.7814L16.2892 13.7109L13.1017 9.79741L12.633 9.21091L12.0465 9.67966L10.0312 11.3207C9.35475 11.7894 8.8065 11.6544 8.25 11.3912C8.08875 11.3147 8.09775 11.2914 7.96875 11.2037L11.391 8.36716L11.4375 8.32066C12.4537 7.31266 13.0785 6.96391 13.617 6.82066C13.887 6.74716 14.1705 6.72991 14.5072 6.72691ZM9.282 6.75016C9.53224 6.74001 9.78288 6.74778 10.032 6.77341C10.2285 6.79666 10.4513 6.96391 10.6418 7.03141C10.5653 7.10191 10.5097 7.14241 10.4303 7.21891L10.3837 7.26616L6.282 10.6637L5.649 11.1797L6.2115 11.7654C6.2115 11.7654 6.75375 12.3519 7.5945 12.7502C8.43525 13.1484 9.7335 13.3742 10.899 12.5627L10.9462 12.5154L12.399 11.3207L15.165 14.7189L15.1882 14.7662L15.2115 14.7887C15.7065 15.2784 15.6952 16.0487 15.2115 16.5474C15.2055 16.5527 15.2175 16.5647 15.2115 16.5699C15.2055 16.5737 15.1065 16.6322 15.0945 16.6412L14.1097 15.3047L12.891 16.1957L13.8525 17.4842C13.4625 17.7482 13.287 17.8862 12.8678 18.1644L11.8605 16.8047L10.641 17.6957L11.6025 18.9842C11.517 19.0367 11.3415 19.1544 11.274 19.1957C11.037 19.3389 10.5795 19.5002 10.1722 19.5234C9.789 19.5444 9.49575 19.4559 9.3525 19.3359L9.32925 19.3127L4.31325 13.7582L4.2195 13.6404L3 13.0314V8.17966C4.4325 8.08591 5.622 7.80166 6.46875 7.47691C7.47075 7.09291 8.18625 6.77641 8.27325 6.77341L9.282 6.75016Z" fill="#694949"/>
</svg>
