<svg width="24" height="24" viewBox="0 0 24 24" fill="none" xmlns="http://www.w3.org/2000/svg">
<path d="M15.5 15L14 10.5C12.343 10.5 12 11.843 12 13.5M12 13.5V15M12 13.5C12 11.843 11.657 10.5 10 10.5L8.5 15" stroke="#576949" stroke-width="1.5" stroke-linecap="round" stroke-linejoin="round"/>
<path d="M21.978 21.9996C20.828 21.3296 18.892 19.8136 16.288 20.0076C15.629 20.0566 15.299 20.0816 14.998 20.0576C14.8886 20.0539 14.7794 20.0442 14.671 20.0286C13.139 19.6736 12 18.3356 12 16.7396M12 16.7396V3.19562M12 16.7396C12 18.3356 10.861 19.6746 9.329 20.0286C9.312 20.0326 9.303 20.0336 9.002 20.0576C8.701 20.0816 8.371 20.0566 7.712 20.0076C5.108 19.8136 3.172 21.3296 2.022 21.9996M12 3.19562C12.0005 2.91864 12.0971 2.65042 12.2733 2.43668C12.4495 2.22293 12.6943 2.0769 12.9661 2.02346C13.2378 1.97003 13.5197 2.0125 13.7637 2.14364C14.0077 2.27477 14.1986 2.48646 14.304 2.74262L17.022 9.38662C18.088 11.9916 18.621 13.2936 19.55 13.9636C19.607 14.0056 19.713 14.0766 19.773 14.1136C20.744 14.7196 21.163 14.7196 22 14.7196M12 3.19562C11.9995 2.91864 11.9029 2.65042 11.7267 2.43668C11.5505 2.22293 11.3057 2.0769 11.0339 2.02346C10.7622 1.97003 10.4803 2.0125 10.2363 2.14364C9.99231 2.27477 9.80137 2.48646 9.696 2.74262L6.978 9.38762C5.912 11.9926 5.379 13.2956 4.45 13.9646C4.37702 14.0166 4.30266 14.0666 4.227 14.1146C3.256 14.7206 2.837 14.7206 2 14.7206" stroke="#576949" stroke-width="1.5" stroke-linecap="round" stroke-linejoin="round"/>
</svg>
