<svg width="14" height="14" viewBox="0 0 14 14" fill="none" xmlns="http://www.w3.org/2000/svg">
<path d="M13 7.33366V9.33366C13 10.0409 12.719 10.7192 12.219 11.2193C11.7189 11.7194 11.0406 12.0003 10.3333 12.0003H3.66667C2.95942 12.0003 2.28115 11.7194 1.78105 11.2193C1.28095 10.7192 1 10.0409 1 9.33366V7.73366C1 7.62757 1.04214 7.52583 1.11716 7.45082C1.19217 7.3758 1.29391 7.33366 1.4 7.33366H13ZM13 7.33366V3.33366C13 2.62641 12.719 1.94814 12.219 1.44804C11.7189 0.947944 11.0406 0.666992 10.3333 0.666992H7M9.66667 12.0003L10.3333 13.3337M4.33333 12.0003L3.66667 13.3337" stroke="#222934" stroke-width="1.2" stroke-linecap="round" stroke-linejoin="round"/>
<path d="M9.26695 4.00033H4.73361C4.51295 4.00033 4.33628 3.82166 4.36028 3.60166C4.45761 2.71699 4.90895 0.666992 7.00028 0.666992C9.09161 0.666992 9.54295 2.71699 9.64028 3.60166C9.66428 3.82166 9.48761 4.00033 9.26695 4.00033Z" stroke="#222934" stroke-width="1.2" stroke-linecap="round" stroke-linejoin="round"/>
</svg>
