<svg width="16" height="16" viewBox="0 0 16 16" fill="none" xmlns="http://www.w3.org/2000/svg">
<path d="M1.5 13V9.5C1.50157 8.97005 1.71278 8.46225 2.08752 8.08752C2.46225 7.71278 2.97005 7.50157 3.5 7.5H12.5C13.03 7.50157 13.5377 7.71278 13.9125 8.08752C14.2872 8.46225 14.4984 8.97005 14.5 9.5V13M12 7.5H3V4.25C3.00099 3.91878 3.133 3.60142 3.36721 3.36721C3.60142 3.133 3.91878 3.00099 4.25 3H11.75C12.0812 3.00099 12.3986 3.133 12.6328 3.36721C12.867 3.60142 12.999 3.91878 13 4.25V7.5H12Z" stroke="#222934" stroke-width="1.2" stroke-linecap="round" stroke-linejoin="round"/>
<path d="M1.5 12.7139V12.4639C1.50058 12.2651 1.57978 12.0747 1.72031 11.9342C1.86083 11.7936 2.05127 11.7144 2.25 11.7139H13.75C13.9487 11.7144 14.1392 11.7936 14.2797 11.9342C14.4202 12.0747 14.4994 12.2651 14.5 12.4639V12.7139M3.5 7.21387V6.71387C3.50074 6.44888 3.60634 6.19496 3.79371 6.00758C3.98109 5.8202 4.23501 5.71461 4.5 5.71387H7C7.26499 5.71461 7.51891 5.8202 7.70629 6.00758C7.89366 6.19496 7.99926 6.44888 8 6.71387M8 6.71387V7.21387M8 6.71387C8.00074 6.44888 8.10634 6.19496 8.29371 6.00758C8.48109 5.8202 8.73501 5.71461 9 5.71387H11.5C11.765 5.71461 12.0189 5.8202 12.2063 6.00758C12.3937 6.19496 12.4993 6.44888 12.5 6.71387V7.21387" stroke="#222934" stroke-width="1.2" stroke-linecap="round" stroke-linejoin="round"/>
</svg>
