<svg width="110" height="110" viewBox="0 0 110 110" fill="none" xmlns="http://www.w3.org/2000/svg">
<rect width="110" height="110" rx="55" fill="#FAFAFA"/>
<path d="M32.58 47.4695V37.2895L31.76 37.3395V31.0695L39.67 31.0195V37.1945H38.85V43.1745L32.58 47.4695Z" fill="#8CB194"/>
<path d="M55.055 34.665L32.335 57.495L32.51 78.6L77.385 78.175L77.45 55.675L55.055 34.665Z" fill="#FFF3E1"/>
<path d="M31.485 74.8952L33.055 74.0302V56.9902L31.595 57.9652C31.59 57.9652 31.755 74.8952 31.485 74.8952ZM76.6 57.9102V73.9252L78.17 74.7902V58.5052L76.6 57.9102Z" fill="#202A54"/>
<path d="M55.21 37.1052L31.59 59.2102V53.6352L55.235 31.2402L78.17 54.9902V59.6952L55.21 37.1052Z" fill="#BCAA93"/>
<path d="M29.275 52.6803L27.89 55.2353L31.605 55.1803C31.605 55.1803 54.78 32.6403 55.28 32.6203C55.885 32.5953 78.16 55.5753 78.16 55.5753L81.455 55.5253L56.735 28.8953L53.105 28.6553L29.275 52.6803Z" fill="#8CB194"/>
<path d="M25 54.5953C24.61 55.0703 24.995 55.3203 25.31 55.3203C25.625 55.3203 29.255 55.2153 29.255 55.2153L54.275 30.8703C54.275 30.8703 54.85 30.2803 55.26 30.3003C55.705 30.3203 56.28 30.8853 56.28 30.8853L81.42 55.5303C81.42 55.5303 84.285 55.5403 84.74 55.4253C85.235 55.3053 84.985 54.8353 84.375 54.1803C83.925 53.6953 58.51 28.5553 58.09 28.1203C56.84 26.8303 56.23 26.0803 55.05 26.1303C53.865 26.1803 53.165 27.0553 51.98 28.1453C51.63 28.4753 25.165 54.3953 25 54.5953Z" fill="#202A54"/>
<path d="M69.75 63.4148H74.875V59.1498C74.875 58.9614 74.8379 58.7748 74.7658 58.6007C74.6937 58.4266 74.588 58.2684 74.4547 58.1351C74.3215 58.0019 74.1633 57.8962 73.9892 57.8241C73.8151 57.752 73.6285 57.7148 73.44 57.7148H69.75V63.4148ZM68.21 63.4148V57.7148H64.21C64.0216 57.7148 63.835 57.752 63.6609 57.8241C63.4868 57.8962 63.3286 58.0019 63.1953 58.1351C63.0621 58.2684 62.9564 58.4266 62.8843 58.6007C62.8121 58.7748 62.775 58.9614 62.775 59.1498V63.4198H68.21V63.4148ZM68.21 65.0348H62.775V69.0348C62.775 69.4154 62.9262 69.7804 63.1953 70.0495C63.4644 70.3187 63.8294 70.4698 64.21 70.4698H68.21V65.0348ZM69.75 65.0348V70.4698H73.44C73.8206 70.4698 74.1856 70.3187 74.4547 70.0495C74.7238 69.7804 74.875 69.4154 74.875 69.0348V65.0348H69.75ZM41.375 63.4148H46.5V59.1498C46.5 58.9614 46.4629 58.7748 46.3908 58.6007C46.3187 58.4266 46.213 58.2684 46.0797 58.1351C45.9465 58.0019 45.7883 57.8962 45.6142 57.8241C45.4401 57.752 45.2535 57.7148 45.065 57.7148H41.375V63.4148ZM39.83 63.4148V57.7148H35.83C35.6416 57.7148 35.455 57.752 35.2809 57.8241C35.1068 57.8962 34.9486 58.0019 34.8153 58.1351C34.6821 58.2684 34.5764 58.4266 34.5043 58.6007C34.4321 58.7748 34.395 58.9614 34.395 59.1498V63.4198H39.83V63.4148ZM39.83 65.0348H34.4V69.0348C34.4 69.4154 34.5512 69.7804 34.8203 70.0495C35.0894 70.3187 35.4544 70.4698 35.835 70.4698H39.835V65.0348H39.83ZM41.375 65.0348V70.4698H45.065C45.4456 70.4698 45.8106 70.3187 46.0797 70.0495C46.3488 69.7804 46.5 69.4154 46.5 69.0348V65.0348H41.375Z" fill="#8CB194"/>
<path d="M48.17 76.3647C48.17 76.3647 48.095 63.9947 48.17 60.8697C48.245 57.7497 51.175 55.0497 54.57 55.1647C58.77 55.3097 60.93 57.6697 61.085 60.7147C61.24 63.7597 61.24 76.5547 61.24 76.5547L48.17 76.3647Z" fill="#8CB194"/>
<path d="M49.735 77.0352C49.735 77.0352 49.675 63.8552 49.735 61.4152C49.81 58.3902 52.09 56.8002 54.74 56.9502C57.825 57.1252 59.35 58.7652 59.47 61.1502C59.59 63.5302 59.59 77.0452 59.59 77.0452L49.735 77.0352Z" fill="#202A54"/>
<path d="M57.995 66.2901C57.985 64.1201 57.965 62.2051 57.935 61.6201C57.855 60.0451 56.735 58.8201 54.56 58.7451C52.805 58.6851 51.36 60.0551 51.32 61.6701C51.305 62.2651 51.31 64.1351 51.32 66.2651L57.995 66.2901ZM51.335 68.7251C51.355 71.6301 51.38 74.3051 51.38 74.3051L58.015 74.3251C58.015 74.3251 58.015 71.6601 58.005 68.7551L51.335 68.7251Z" fill="#8CB194"/>
<path d="M58.015 67.4046C57.99 68.1096 58.275 68.6796 59.11 68.6796C59.945 68.6796 60.25 68.2896 60.31 67.5346C60.36 66.8596 59.895 66.2596 59.11 66.3096C58.33 66.3646 58.035 66.9096 58.015 67.4046Z" fill="#BCAA93"/>
<path d="M62.805 81.1545C62.805 81.1545 68.245 81.2095 72.175 81.0945C76.105 80.9795 78.95 81.1545 79.535 80.5645C80.12 79.9795 80.11 74.9945 77.385 73.6445C74.88 72.4045 73.26 73.6645 72.4 73.7495C71.265 73.8645 69.86 73.1595 68.83 73.1395C64.575 73.0495 63.085 76.3945 63.085 76.3945L62.805 81.1545ZM30.265 80.7445C30.72 81.1695 34.195 81.1845 38.39 81.1545C42.585 81.1245 45.96 81.1645 45.96 81.1645L46.66 76.9295L45.81 76.2245C45.81 76.2245 45.905 74.1045 43.23 73.3795C41.38 72.8795 39.77 73.7045 38.215 73.7295C36.66 73.7595 35.225 73.0545 33.495 73.4645C31.885 73.8445 30.63 74.8945 30.12 77.0145C29.765 78.4845 29.855 80.3595 30.265 80.7445Z" fill="#8CB194"/>
<path d="M45.46 85.5855L45.495 81.1605H45.82L45.815 76.2305H63.18L63.12 81.1605H63.5V85.4705C63.495 85.4655 45.46 85.6105 45.46 85.5855Z" fill="#B0B0B0"/>
<path d="M63.495 83.6502V85.4652L45.455 85.5852L45.47 83.6352L63.495 83.6502ZM45.81 79.2402L63.135 79.2452V81.1552H45.81V79.2402Z" fill="#202A54"/>
<path d="M76.489 79.6586L78.6689 77.4795L87.9336 86.7441L85.7537 88.9233L76.489 79.6586Z" fill="#616161"/>
<path d="M69.4166 82.7497C76.2282 82.7497 81.75 77.2279 81.75 70.4163C81.75 63.6048 76.2282 58.083 69.4166 58.083C62.6051 58.083 57.0833 63.6048 57.0833 70.4163C57.0833 77.2279 62.6051 82.7497 69.4166 82.7497Z" fill="#616161"/>
<path d="M79.0135 82.2414L81.1927 80.0615L87.8959 86.7647L85.7159 88.9446L79.0135 82.2414Z" fill="#37474F"/>
<path d="M69.4166 80.4372C74.951 80.4372 79.4375 75.9507 79.4375 70.4163C79.4375 64.882 74.951 60.3955 69.4166 60.3955C63.8823 60.3955 59.3958 64.882 59.3958 70.4163C59.3958 75.9507 63.8823 80.4372 69.4166 80.4372Z" fill="white"/>
<path d="M74.7354 65.9462C73.425 64.4045 71.4979 63.4795 69.4166 63.4795C67.3354 63.4795 65.4083 64.4045 64.0979 65.9462C63.7896 66.2545 63.8666 66.7941 64.175 67.0253C64.4833 67.3337 65.0229 67.2566 65.2541 66.9482C66.3333 65.7149 67.7979 65.0212 69.4166 65.0212C71.0354 65.0212 72.5 65.7149 73.5791 66.9482C73.7333 67.1024 73.9646 67.2566 74.1958 67.2566C74.35 67.2566 74.5812 67.1795 74.6583 67.1024C74.9666 66.7941 74.9666 66.2545 74.7354 65.9462Z" fill="#DFEAF3"/>
</svg>
