<svg width="213" height="16" viewBox="0 0 213 16" fill="none" xmlns="http://www.w3.org/2000/svg">
<path d="M0.207386 15V4.09091H3.14062V5.99432H3.25426C3.45313 5.31723 3.78693 4.80587 4.25568 4.46023C4.72443 4.10985 5.2642 3.93466 5.875 3.93466C6.02652 3.93466 6.18987 3.94413 6.36506 3.96307C6.54025 3.98201 6.69413 4.00805 6.8267 4.04119V6.72585C6.68466 6.68324 6.48816 6.64536 6.23722 6.61222C5.98627 6.57907 5.75663 6.5625 5.5483 6.5625C5.10322 6.5625 4.70549 6.65956 4.35511 6.85369C4.00947 7.04309 3.73485 7.30824 3.53125 7.64915C3.33239 7.99006 3.23295 8.38305 3.23295 8.82812V15H0.207386ZM12.8548 15.2131C11.7326 15.2131 10.7667 14.9858 9.95703 14.5312C9.15211 14.072 8.53184 13.4233 8.09624 12.5852C7.66063 11.7424 7.44283 10.7457 7.44283 9.59517C7.44283 8.47301 7.66063 7.48816 8.09624 6.64062C8.53184 5.79309 9.145 5.13258 9.93572 4.65909C10.7312 4.18561 11.6639 3.94886 12.734 3.94886C13.4537 3.94886 14.1237 4.06487 14.744 4.29688C15.369 4.52415 15.9135 4.86742 16.3775 5.3267C16.8462 5.78598 17.2108 6.36364 17.4712 7.05966C17.7317 7.75095 17.8619 8.56061 17.8619 9.48864V10.3196H8.65021V8.4446H15.0138C15.0138 8.009 14.9192 7.62311 14.7298 7.28693C14.5404 6.95076 14.2776 6.68797 13.9414 6.49858C13.61 6.30445 13.2241 6.20739 12.7837 6.20739C12.3245 6.20739 11.9173 6.31392 11.5621 6.52699C11.2118 6.73532 10.9371 7.01705 10.7383 7.37216C10.5394 7.72254 10.4376 8.11316 10.4329 8.54403V10.3267C10.4329 10.8665 10.5323 11.3329 10.7312 11.7259C10.9348 12.1188 11.2212 12.4219 11.5906 12.6349C11.9599 12.848 12.3978 12.9545 12.9045 12.9545C13.2406 12.9545 13.5484 12.9072 13.8278 12.8125C14.1071 12.7178 14.3462 12.5758 14.5451 12.3864C14.744 12.197 14.8955 11.965 14.9996 11.6903L17.7979 11.875C17.6559 12.5473 17.3647 13.1345 16.9244 13.6364C16.4888 14.1335 15.9253 14.5218 15.234 14.8011C14.5475 15.0758 13.7544 15.2131 12.8548 15.2131ZM22.8619 8.69318V15H19.8363V4.09091H22.7198V6.01562H22.8477C23.0891 5.38116 23.494 4.87926 24.0621 4.50994C24.6303 4.13589 25.3192 3.94886 26.1289 3.94886C26.8865 3.94886 27.547 4.11458 28.1104 4.44602C28.6739 4.77746 29.1119 5.25095 29.4244 5.86648C29.7369 6.47727 29.8931 7.20644 29.8931 8.05398V15H26.8675V8.59375C26.8723 7.92614 26.7018 7.4053 26.3562 7.03125C26.0105 6.65246 25.5347 6.46307 24.9286 6.46307C24.5214 6.46307 24.1616 6.55066 23.8491 6.72585C23.5413 6.90104 23.2998 7.15672 23.1246 7.4929C22.9542 7.82434 22.8666 8.22443 22.8619 8.69318ZM38.0803 4.09091V6.36364H31.5107V4.09091H38.0803ZM33.0021 1.47727H36.0277V11.6477C36.0277 11.9271 36.0703 12.1449 36.1555 12.3011C36.2408 12.4527 36.3591 12.5592 36.5107 12.6207C36.6669 12.6823 36.8468 12.7131 37.0504 12.7131C37.1925 12.7131 37.3345 12.7012 37.4766 12.6776C37.6186 12.6491 37.7275 12.6278 37.8033 12.6136L38.2791 14.8651C38.1276 14.9124 37.9145 14.9669 37.6399 15.0284C37.3653 15.0947 37.0315 15.1349 36.6385 15.1491C35.9093 15.1776 35.2701 15.0805 34.7209 14.858C34.1764 14.6354 33.7526 14.2898 33.4496 13.821C33.1465 13.3523 32.9974 12.7604 33.0021 12.0455V1.47727ZM46.516 7.8267V10.2273H39.8825V7.8267H46.516ZM138.968 15.1847C138.499 15.1847 138.097 15.0189 137.761 14.6875C137.429 14.3513 137.263 13.9489 137.263 13.4801C137.263 13.0161 137.429 12.6184 137.761 12.2869C138.097 11.9555 138.499 11.7898 138.968 11.7898C139.423 11.7898 139.82 11.9555 140.161 12.2869C140.502 12.6184 140.673 13.0161 140.673 13.4801C140.673 13.7926 140.592 14.0791 140.431 14.3395C140.275 14.5952 140.069 14.8011 139.813 14.9574C139.558 15.1089 139.276 15.1847 138.968 15.1847ZM148.086 15.2131C146.968 15.2131 146.007 14.9763 145.202 14.5028C144.402 14.0246 143.786 13.3617 143.355 12.5142C142.929 11.6667 142.716 10.6913 142.716 9.58807C142.716 8.47064 142.932 7.49053 143.363 6.64773C143.798 5.80019 144.416 5.13968 145.216 4.66619C146.016 4.18797 146.968 3.94886 148.071 3.94886C149.023 3.94886 149.856 4.12169 150.571 4.46733C151.286 4.81297 151.852 5.2983 152.269 5.9233C152.685 6.5483 152.915 7.2822 152.958 8.125H150.103C150.022 7.58049 149.809 7.14252 149.463 6.81108C149.123 6.47491 148.675 6.30682 148.121 6.30682C147.652 6.30682 147.243 6.43466 146.892 6.69034C146.547 6.94129 146.277 7.30824 146.083 7.79119C145.889 8.27415 145.792 8.8589 145.792 9.54545C145.792 10.2415 145.886 10.8333 146.076 11.321C146.27 11.8087 146.542 12.1804 146.892 12.4361C147.243 12.6918 147.652 12.8196 148.121 12.8196C148.467 12.8196 148.777 12.7486 149.051 12.6065C149.331 12.4645 149.56 12.2585 149.74 11.9886C149.925 11.714 150.046 11.3849 150.103 11.0014H152.958C152.91 11.8348 152.683 12.5687 152.276 13.2031C151.873 13.8329 151.317 14.3253 150.607 14.6804C149.897 15.0355 149.056 15.2131 148.086 15.2131ZM159.824 15.2131C158.721 15.2131 157.767 14.9787 156.962 14.5099C156.161 14.0365 155.544 13.3783 155.108 12.5355C154.672 11.688 154.455 10.7055 154.455 9.58807C154.455 8.46117 154.672 7.47633 155.108 6.63352C155.544 5.78598 156.161 5.12784 156.962 4.65909C157.767 4.18561 158.721 3.94886 159.824 3.94886C160.927 3.94886 161.879 4.18561 162.679 4.65909C163.484 5.12784 164.104 5.78598 164.54 6.63352C164.975 7.47633 165.193 8.46117 165.193 9.58807C165.193 10.7055 164.975 11.688 164.54 12.5355C164.104 13.3783 163.484 14.0365 162.679 14.5099C161.879 14.9787 160.927 15.2131 159.824 15.2131ZM159.838 12.8693C160.34 12.8693 160.759 12.7273 161.095 12.4432C161.431 12.1544 161.685 11.7614 161.855 11.2642C162.03 10.767 162.118 10.2012 162.118 9.56676C162.118 8.93229 162.03 8.36648 161.855 7.86932C161.685 7.37216 161.431 6.97917 161.095 6.69034C160.759 6.40151 160.34 6.2571 159.838 6.2571C159.331 6.2571 158.905 6.40151 158.56 6.69034C158.219 6.97917 157.961 7.37216 157.786 7.86932C157.615 8.36648 157.53 8.93229 157.53 9.56676C157.53 10.2012 157.615 10.767 157.786 11.2642C157.961 11.7614 158.219 12.1544 158.56 12.4432C158.905 12.7273 159.331 12.8693 159.838 12.8693ZM167.161 15V4.09091H170.044V6.01562H170.172C170.399 5.37642 170.778 4.87216 171.308 4.50284C171.839 4.13352 172.473 3.94886 173.212 3.94886C173.96 3.94886 174.597 4.13589 175.122 4.50994C175.648 4.87926 175.998 5.38116 176.173 6.01562H176.287C176.509 5.39062 176.912 4.8911 177.494 4.51705C178.081 4.13826 178.775 3.94886 179.575 3.94886C180.593 3.94886 181.42 4.2732 182.054 4.92188C182.693 5.56581 183.013 6.47964 183.013 7.66335V15H179.994V8.25994C179.994 7.65388 179.833 7.19934 179.511 6.89631C179.189 6.59328 178.787 6.44176 178.304 6.44176C177.755 6.44176 177.326 6.61695 177.018 6.96733C176.711 7.31297 176.557 7.76989 176.557 8.33807V15H173.624V8.19602C173.624 7.66098 173.47 7.23485 173.162 6.91761C172.859 6.60038 172.459 6.44176 171.962 6.44176C171.625 6.44176 171.322 6.52699 171.053 6.69744C170.787 6.86316 170.577 7.09754 170.42 7.40057C170.264 7.69886 170.186 8.04924 170.186 8.4517V15H167.161ZM187.171 15.1847C186.702 15.1847 186.3 15.0189 185.964 14.6875C185.632 14.3513 185.467 13.9489 185.467 13.4801C185.467 13.0161 185.632 12.6184 185.964 12.2869C186.3 11.9555 186.702 11.7898 187.171 11.7898C187.626 11.7898 188.023 11.9555 188.364 12.2869C188.705 12.6184 188.876 13.0161 188.876 13.4801C188.876 13.7926 188.795 14.0791 188.634 14.3395C188.478 14.5952 188.272 14.8011 188.016 14.9574C187.761 15.1089 187.479 15.1847 187.171 15.1847ZM194.471 15.206C193.775 15.206 193.154 15.0852 192.61 14.8438C192.065 14.5975 191.634 14.2353 191.317 13.7571C191.005 13.2741 190.848 12.6728 190.848 11.9531C190.848 11.3471 190.96 10.8381 191.182 10.4261C191.405 10.0142 191.708 9.68277 192.091 9.43182C192.475 9.18087 192.91 8.99148 193.398 8.86364C193.891 8.7358 194.407 8.64583 194.946 8.59375C195.581 8.52746 196.092 8.46591 196.48 8.40909C196.869 8.34754 197.15 8.25758 197.326 8.1392C197.501 8.02083 197.588 7.84564 197.588 7.61364V7.57102C197.588 7.12121 197.446 6.7732 197.162 6.52699C196.883 6.28078 196.485 6.15767 195.969 6.15767C195.425 6.15767 194.991 6.27841 194.669 6.51989C194.347 6.75663 194.134 7.05492 194.03 7.41477L191.232 7.1875C191.374 6.52462 191.653 5.9517 192.07 5.46875C192.487 4.98106 193.024 4.60701 193.682 4.34659C194.345 4.08144 195.112 3.94886 195.983 3.94886C196.589 3.94886 197.169 4.01989 197.723 4.16193C198.282 4.30398 198.777 4.52415 199.208 4.82244C199.643 5.12074 199.987 5.50426 200.238 5.97301C200.489 6.43703 200.614 6.99337 200.614 7.64205V15H197.745V13.4872H197.659C197.484 13.8281 197.25 14.1288 196.956 14.3892C196.663 14.6449 196.31 14.8461 195.898 14.9929C195.486 15.1349 195.01 15.206 194.471 15.206ZM195.337 13.1179C195.782 13.1179 196.175 13.0303 196.516 12.8551C196.857 12.6752 197.124 12.4337 197.319 12.1307C197.513 11.8277 197.61 11.4844 197.61 11.1009V9.94318C197.515 10.0047 197.385 10.0616 197.219 10.1136C197.058 10.161 196.876 10.206 196.672 10.2486C196.469 10.2865 196.265 10.322 196.061 10.3551C195.858 10.3835 195.673 10.4096 195.507 10.4332C195.152 10.4853 194.842 10.5682 194.577 10.6818C194.312 10.7955 194.106 10.9493 193.959 11.1435C193.812 11.3329 193.739 11.5696 193.739 11.8537C193.739 12.2656 193.888 12.5805 194.186 12.7983C194.489 13.0114 194.873 13.1179 195.337 13.1179ZM209.957 10.3551V4.09091H212.983V15H210.078V13.0185H209.964C209.718 13.6577 209.308 14.1714 208.735 14.5597C208.167 14.9479 207.474 15.142 206.654 15.142C205.925 15.142 205.284 14.9763 204.73 14.6449C204.176 14.3134 203.743 13.8423 203.43 13.2315C203.122 12.6207 202.966 11.8892 202.961 11.0369V4.09091H205.987V10.4972C205.992 11.1411 206.164 11.6501 206.505 12.0241C206.846 12.3982 207.303 12.5852 207.876 12.5852C208.241 12.5852 208.582 12.5024 208.899 12.3366C209.216 12.1662 209.472 11.9152 209.666 11.5838C209.865 11.2524 209.962 10.8428 209.957 10.3551Z" fill="#202A54"/>
<path d="M54.0231 15.2131C52.9057 15.2131 51.9445 14.9763 51.1396 14.5028C50.3394 14.0246 49.7238 13.3617 49.293 12.5142C48.8668 11.6667 48.6538 10.6913 48.6538 9.58807C48.6538 8.47064 48.8692 7.49053 49.3001 6.64773C49.7357 5.80019 50.3536 5.13968 51.1538 4.66619C51.954 4.18797 52.9057 3.94886 54.0089 3.94886C54.9606 3.94886 55.7939 4.12169 56.5089 4.46733C57.2238 4.81297 57.7897 5.2983 58.2063 5.9233C58.623 6.5483 58.8526 7.2822 58.8952 8.125H56.0401C55.9596 7.58049 55.7466 7.14252 55.4009 6.81108C55.06 6.47491 54.6126 6.30682 54.0586 6.30682C53.5898 6.30682 53.1803 6.43466 52.8299 6.69034C52.4843 6.94129 52.2144 7.30824 52.0202 7.79119C51.8261 8.27415 51.729 8.8589 51.729 9.54545C51.729 10.2415 51.8237 10.8333 52.0131 11.321C52.2073 11.8087 52.4795 12.1804 52.8299 12.4361C53.1803 12.6918 53.5898 12.8196 54.0586 12.8196C54.4042 12.8196 54.7144 12.7486 54.989 12.6065C55.2683 12.4645 55.498 12.2585 55.6779 11.9886C55.8626 11.714 55.9833 11.3849 56.0401 11.0014H58.8952C58.8479 11.8348 58.6206 12.5687 58.2134 13.2031C57.811 13.8329 57.2546 14.3253 56.5444 14.6804C55.8342 15.0355 54.9937 15.2131 54.0231 15.2131ZM63.9432 15.206C63.2472 15.206 62.6269 15.0852 62.0824 14.8438C61.5379 14.5975 61.107 14.2353 60.7898 13.7571C60.4773 13.2741 60.321 12.6728 60.321 11.9531C60.321 11.3471 60.4323 10.8381 60.6548 10.4261C60.8774 10.0142 61.1804 9.68277 61.5639 9.43182C61.9474 9.18087 62.383 8.99148 62.8707 8.86364C63.3632 8.7358 63.8793 8.64583 64.419 8.59375C65.0535 8.52746 65.5649 8.46591 65.9531 8.40909C66.3414 8.34754 66.6231 8.25758 66.7983 8.1392C66.9735 8.02083 67.0611 7.84564 67.0611 7.61364V7.57102C67.0611 7.12121 66.919 6.7732 66.6349 6.52699C66.3556 6.28078 65.9579 6.15767 65.4418 6.15767C64.8973 6.15767 64.464 6.27841 64.142 6.51989C63.8201 6.75663 63.607 7.05492 63.5028 7.41477L60.7045 7.1875C60.8466 6.52462 61.1259 5.9517 61.5426 5.46875C61.9593 4.98106 62.4967 4.60701 63.1548 4.34659C63.8177 4.08144 64.5848 3.94886 65.456 3.94886C66.062 3.94886 66.642 4.01989 67.196 4.16193C67.7547 4.30398 68.2495 4.52415 68.6804 4.82244C69.116 5.12074 69.4593 5.50426 69.7102 5.97301C69.9612 6.43703 70.0866 6.99337 70.0866 7.64205V15H67.2173V13.4872H67.1321C66.9569 13.8281 66.7225 14.1288 66.429 14.3892C66.1354 14.6449 65.7827 14.8461 65.3707 14.9929C64.9588 15.1349 64.483 15.206 63.9432 15.206ZM64.8097 13.1179C65.2547 13.1179 65.6477 13.0303 65.9886 12.8551C66.3295 12.6752 66.5971 12.4337 66.7912 12.1307C66.9853 11.8277 67.0824 11.4844 67.0824 11.1009V9.94318C66.9877 10.0047 66.8575 10.0616 66.6918 10.1136C66.5308 10.161 66.3485 10.206 66.1449 10.2486C65.9413 10.2865 65.7377 10.322 65.5341 10.3551C65.3305 10.3835 65.1458 10.4096 64.9801 10.4332C64.625 10.4853 64.3149 10.5682 64.0497 10.6818C63.7846 10.7955 63.5786 10.9493 63.4318 11.1435C63.285 11.3329 63.2116 11.5696 63.2116 11.8537C63.2116 12.2656 63.3608 12.5805 63.6591 12.7983C63.9621 13.0114 64.3456 13.1179 64.8097 13.1179ZM75.4595 8.69318V15H72.4339V4.09091H75.3175V6.01562H75.4453C75.6868 5.38116 76.0916 4.87926 76.6598 4.50994C77.228 4.13589 77.9169 3.94886 78.7266 3.94886C79.4841 3.94886 80.1446 4.11458 80.7081 4.44602C81.2715 4.77746 81.7095 5.25095 82.022 5.86648C82.3345 6.47727 82.4908 7.20644 82.4908 8.05398V15H79.4652V8.59375C79.4699 7.92614 79.2995 7.4053 78.9538 7.03125C78.6082 6.65246 78.1323 6.46307 77.5263 6.46307C77.1191 6.46307 76.7592 6.55066 76.4467 6.72585C76.139 6.90104 75.8975 7.15672 75.7223 7.4929C75.5518 7.82434 75.4643 8.22443 75.4595 8.69318ZM84.9322 15V0.454545H87.9577V5.9233H88.0501C88.1826 5.62973 88.3744 5.33144 88.6254 5.02841C88.881 4.72064 89.2125 4.46496 89.6197 4.26136C90.0316 4.05303 90.543 3.94886 91.1538 3.94886C91.9492 3.94886 92.6831 4.1572 93.3555 4.57386C94.0278 4.9858 94.5652 5.60843 94.9677 6.44176C95.3701 7.27036 95.5714 8.30966 95.5714 9.55966C95.5714 10.7765 95.3749 11.804 94.9819 12.642C94.5936 13.4754 94.0633 14.1075 93.391 14.5384C92.7234 14.9645 91.9753 15.1776 91.1467 15.1776C90.5595 15.1776 90.06 15.0805 89.6481 14.8864C89.2409 14.6922 88.9071 14.4484 88.6467 14.1548C88.3862 13.8565 88.1874 13.5559 88.0501 13.2528H87.9151V15H84.9322ZM87.8938 9.54545C87.8938 10.1941 87.9838 10.7599 88.1637 11.2429C88.3436 11.7259 88.604 12.1023 88.945 12.3722C89.2859 12.6373 89.7002 12.7699 90.1879 12.7699C90.6803 12.7699 91.0969 12.6349 91.4379 12.3651C91.7788 12.0904 92.0368 11.7116 92.212 11.2287C92.3919 10.741 92.4819 10.1799 92.4819 9.54545C92.4819 8.91572 92.3943 8.36174 92.2191 7.88352C92.0439 7.4053 91.7859 7.03125 91.445 6.76136C91.104 6.49148 90.685 6.35653 90.1879 6.35653C89.6954 6.35653 89.2788 6.48674 88.9379 6.74716C88.6017 7.00758 88.3436 7.37689 88.1637 7.85511C87.9838 8.33333 87.8938 8.89678 87.8938 9.54545ZM102.562 15.2131C101.44 15.2131 100.474 14.9858 99.6641 14.5312C98.8591 14.072 98.2389 13.4233 97.8033 12.5852C97.3677 11.7424 97.1499 10.7457 97.1499 9.59517C97.1499 8.47301 97.3677 7.48816 97.8033 6.64062C98.2389 5.79309 98.852 5.13258 99.6428 4.65909C100.438 4.18561 101.371 3.94886 102.441 3.94886C103.161 3.94886 103.831 4.06487 104.451 4.29688C105.076 4.52415 105.621 4.86742 106.085 5.3267C106.553 5.78598 106.918 6.36364 107.178 7.05966C107.439 7.75095 107.569 8.56061 107.569 9.48864V10.3196H98.3572V8.4446H104.721C104.721 8.009 104.626 7.62311 104.437 7.28693C104.247 6.95076 103.985 6.68797 103.648 6.49858C103.317 6.30445 102.931 6.20739 102.491 6.20739C102.031 6.20739 101.624 6.31392 101.269 6.52699C100.919 6.73532 100.644 7.01705 100.445 7.37216C100.246 7.72254 100.145 8.11316 100.14 8.54403V10.3267C100.14 10.8665 100.239 11.3329 100.438 11.7259C100.642 12.1188 100.928 12.4219 101.298 12.6349C101.667 12.848 102.105 12.9545 102.612 12.9545C102.948 12.9545 103.255 12.9072 103.535 12.8125C103.814 12.7178 104.053 12.5758 104.252 12.3864C104.451 12.197 104.603 11.965 104.707 11.6903L107.505 11.875C107.363 12.5473 107.072 13.1345 106.631 13.6364C106.196 14.1335 105.632 14.5218 104.941 14.8011C104.254 15.0758 103.461 15.2131 102.562 15.2131ZM109.543 15V4.09091H112.477V5.99432H112.59C112.789 5.31723 113.123 4.80587 113.592 4.46023C114.06 4.10985 114.6 3.93466 115.211 3.93466C115.362 3.93466 115.526 3.94413 115.701 3.96307C115.876 3.98201 116.03 4.00805 116.163 4.04119V6.72585C116.021 6.68324 115.824 6.64536 115.573 6.61222C115.322 6.57907 115.093 6.5625 114.884 6.5625C114.439 6.5625 114.041 6.65956 113.691 6.85369C113.345 7.04309 113.071 7.30824 112.867 7.64915C112.668 7.99006 112.569 8.38305 112.569 8.82812V15H109.543ZM117.727 15V4.09091H120.66V5.99432H120.774C120.973 5.31723 121.306 4.80587 121.775 4.46023C122.244 4.10985 122.784 3.93466 123.395 3.93466C123.546 3.93466 123.709 3.94413 123.885 3.96307C124.06 3.98201 124.214 4.00805 124.346 4.04119V6.72585C124.204 6.68324 124.008 6.64536 123.757 6.61222C123.506 6.57907 123.276 6.5625 123.068 6.5625C122.623 6.5625 122.225 6.65956 121.875 6.85369C121.529 7.04309 121.254 7.30824 121.051 7.64915C120.852 7.99006 120.752 8.38305 120.752 8.82812V15H117.727ZM128.709 15.206C128.013 15.206 127.393 15.0852 126.848 14.8438C126.304 14.5975 125.873 14.2353 125.555 13.7571C125.243 13.2741 125.087 12.6728 125.087 11.9531C125.087 11.3471 125.198 10.8381 125.42 10.4261C125.643 10.0142 125.946 9.68277 126.33 9.43182C126.713 9.18087 127.149 8.99148 127.636 8.86364C128.129 8.7358 128.645 8.64583 129.185 8.59375C129.819 8.52746 130.33 8.46591 130.719 8.40909C131.107 8.34754 131.389 8.25758 131.564 8.1392C131.739 8.02083 131.827 7.84564 131.827 7.61364V7.57102C131.827 7.12121 131.685 6.7732 131.401 6.52699C131.121 6.28078 130.723 6.15767 130.207 6.15767C129.663 6.15767 129.23 6.27841 128.908 6.51989C128.586 6.75663 128.373 7.05492 128.268 7.41477L125.47 7.1875C125.612 6.52462 125.892 5.9517 126.308 5.46875C126.725 4.98106 127.262 4.60701 127.92 4.34659C128.583 4.08144 129.35 3.94886 130.222 3.94886C130.828 3.94886 131.408 4.01989 131.962 4.16193C132.52 4.30398 133.015 4.52415 133.446 4.82244C133.882 5.12074 134.225 5.50426 134.476 5.97301C134.727 6.43703 134.852 6.99337 134.852 7.64205V15H131.983V13.4872H131.898C131.723 13.8281 131.488 14.1288 131.195 14.3892C130.901 14.6449 130.548 14.8461 130.136 14.9929C129.724 15.1349 129.249 15.206 128.709 15.206ZM129.575 13.1179C130.02 13.1179 130.413 13.0303 130.754 12.8551C131.095 12.6752 131.363 12.4337 131.557 12.1307C131.751 11.8277 131.848 11.4844 131.848 11.1009V9.94318C131.753 10.0047 131.623 10.0616 131.457 10.1136C131.296 10.161 131.114 10.206 130.911 10.2486C130.707 10.2865 130.503 10.322 130.3 10.3551C130.096 10.3835 129.911 10.4096 129.746 10.4332C129.391 10.4853 129.08 10.5682 128.815 10.6818C128.55 10.7955 128.344 10.9493 128.197 11.1435C128.051 11.3329 127.977 11.5696 127.977 11.8537C127.977 12.2656 128.126 12.5805 128.425 12.7983C128.728 13.0114 129.111 13.1179 129.575 13.1179Z" fill="#2C9143"/>
</svg>
