<svg width="16" height="12" viewBox="0 0 16 12" fill="none" xmlns="http://www.w3.org/2000/svg">
<path d="M5.58911 9.80994C5.58911 10.2141 5.4403 10.6017 5.17542 10.8874C4.91054 11.1732 4.55129 11.3337 4.1767 11.3337C3.8021 11.3337 3.44285 11.1732 3.17797 10.8874C2.91309 10.6017 2.76428 10.2141 2.76428 9.80994C2.76428 9.4058 2.91309 9.01821 3.17797 8.73245C3.44285 8.44668 3.8021 8.28613 4.1767 8.28613C4.55129 8.28613 4.91054 8.44668 5.17542 8.73245C5.4403 9.01821 5.58911 9.4058 5.58911 9.80994ZM12.6512 9.80994C12.6512 10.2141 12.5024 10.6017 12.2375 10.8874C11.9726 11.1732 11.6134 11.3337 11.2388 11.3337C10.8642 11.3337 10.5049 11.1732 10.24 10.8874C9.97515 10.6017 9.82635 10.2141 9.82635 9.80994C9.82635 9.4058 9.97515 9.01821 10.24 8.73245C10.5049 8.44668 10.8642 8.28613 11.2388 8.28613C11.6134 8.28613 11.9726 8.44668 12.2375 8.73245C12.5024 9.01821 12.6512 9.4058 12.6512 9.80994Z" stroke="#222934" stroke-width="1.2" stroke-linecap="round" stroke-linejoin="round"/>
<path d="M0.645532 4.47651H11.9448M0.645532 4.47651C0.645532 5.07079 0.631408 6.79269 0.648357 8.48412C0.67378 9.03269 0.758525 9.48983 2.76556 9.80983M0.645532 4.47651C0.798073 3.1508 1.4612 1.58128 1.80018 0.986991M5.58898 4.47651V0.666992M9.81915 9.80983H5.58545M0.656125 0.666992H7.87214C7.87214 0.666992 8.25349 0.666992 8.59247 0.703563C9.22735 0.767563 9.76054 1.07842 10.2944 1.85556C10.8594 2.67842 11.293 3.7207 11.8693 4.27841C12.8262 5.20489 14.6468 4.91841 14.7485 6.88412C14.7739 7.88983 14.7739 8.98697 14.7315 9.16983C14.663 9.70849 14.2781 9.79611 13.7993 9.80983C13.3841 9.82202 12.8834 9.78849 12.6397 9.80983" stroke="#222934" stroke-width="1.2" stroke-linecap="round" stroke-linejoin="round"/>
</svg>
