<svg width="16" height="15" viewBox="0 0 16 15" fill="none" xmlns="http://www.w3.org/2000/svg">
<path d="M11.75 14.0835H4.25" stroke="white" stroke-width="1.66667" stroke-linecap="round"/>
<path d="M8.83333 12.4168C8.83333 12.6378 8.74553 12.8498 8.58925 13.0061C8.43297 13.1624 8.22101 13.2502 8 13.2502C7.77898 13.2502 7.56702 13.1624 7.41074 13.0061C7.25446 12.8498 7.16666 12.6378 7.16666 12.4168H8.83333ZM7.16666 12.4168V10.3335H8.83333V12.4168H7.16666Z" fill="white"/>
<path d="M6.75 4.91699H9.25M2.58333 9.08366C2.58333 9.08366 0.916664 7.83366 0.916664 5.75033V4.08366C0.916664 3.64163 1.09226 3.21771 1.40482 2.90515C1.71738 2.59259 2.1413 2.41699 2.58333 2.41699C3.02536 2.41699 3.44928 2.59259 3.76184 2.90515C4.0744 3.21771 4.25 3.64163 4.25 4.08366V4.91699M13.4167 9.08366C13.4167 9.08366 15.0833 7.83366 15.0833 5.75033V4.08366C15.0833 3.64163 14.9077 3.21771 14.5952 2.90515C14.2826 2.59259 13.8587 2.41699 13.4167 2.41699C12.9746 2.41699 12.5507 2.59259 12.2382 2.90515C11.9256 3.21771 11.75 3.64163 11.75 4.08366V4.91699" stroke="white" stroke-width="1.66667" stroke-linecap="round"/>
<path d="M11.75 6.46683V3.25016C11.75 2.80814 11.5744 2.38421 11.2618 2.07165C10.9493 1.75909 10.5254 1.5835 10.0833 1.5835H5.91667C5.47464 1.5835 5.05072 1.75909 4.73816 2.07165C4.4256 2.38421 4.25 2.80814 4.25 3.25016V6.46683C4.25001 7.01555 4.38548 7.55577 4.64438 8.03957C4.90329 8.52336 5.27763 8.93576 5.73417 9.24016L7.5375 10.4418C7.67444 10.5332 7.83538 10.582 8 10.582C8.16462 10.582 8.32556 10.5332 8.4625 10.4418L10.2658 9.24016C10.7225 8.93568 11.0969 8.52315 11.3558 8.0392C11.6147 7.55525 11.7501 7.01569 11.75 6.46683Z" stroke="white" stroke-width="1.66667"/>
</svg>
